# AST/ASF file generated using VICON BodyLanguage
# -----------------------------------------------
:version 1.10
:name VICON
:units
  mass 1.0
  length 0.45
  angle deg
:documentation
   .ast/.asf automatically generated from VICON data using
   VICON BodyBuilder and BodyLanguage model FoxedUp or BRILLIANT.MOD
:root
   order TX TY TZ RX RY RZ
   axis XYZ
   position 0 0 0  
   orientation 0 0 0 
:bonedata
  begin
     id 1 
     name lhipjoint
     direction 0.541323 -0.757556 0.364798 
     length 2.47576 
     axis 0 0 0  XYZ
  end
  begin
     id 2 
     name lfemur
     direction 0.34202 -0.939693 0  
     length 7.46493  
     axis 0 0 20  XYZ
    dof rx ry rz
    limits (-160.0 20.0)
           (-70.0 70.0)
           (-60.0 70.0)
  end
  begin
     id 3 
     name ltibia
     direction 0.34202 -0.939693 0   
     length 7.73805   
     axis 0 0 20   XYZ
    dof rx
    limits (-10.0 170.0)
  end
  begin
     id 4 
     name lfoot
     direction 0.107174 -0.294458 0.949636   
     length 2.25864   
     axis -90 7.62852e-016 20   XYZ
    dof rx rz
    limits (-45.0 90.0)
           (-70.0 20.0)
  end
  begin
     id 5 
     name ltoes
     direction 1.53606e-011 -4.21934e-011 1   
     length 1.12451   
     axis -90 7.62852e-016 20   XYZ
    dof rx
    limits (-90.0 20.0)
  end
  begin
     id 6 
     name rhipjoint
     direction -0.524745 -0.766967 0.36933   
     length 2.44538  
     axis 0 0 0  XYZ 
  end
  begin
     id 7 
     name rfemur
     direction -0.34202 -0.939693 0   
     length 7.61604   
     axis 0 0 -20   XYZ
    dof rx ry rz
    limits (-160.0 20.0)
           (-70.0 70.0)
           (-70.0 60.0)
  end
  begin
     id 8 
     name rtibia
     direction -0.34202 -0.939693 0   
     length 7.61056   
     axis 0 0 -20   XYZ
    dof rx
    limits (-10.0 170.0)
 end
 begin
     id 9 
     name rfoot
     direction -0.12616 -0.346623 0.929482   
     length 2.46372  
     axis -90 -7.62852e-016 -20   XYZ
    dof rx rz
    limits (-45.0 90.0)
           (-20.0 70.0)
  end
  begin
     id 10 
     name rtoes
     direction -1.53531e-011 -4.22004e-011 1   
     length 1.21611   
     axis -90 -7.62852e-016 -20   XYZ
    dof rx
    limits (-90.0 20.0)
  end
  begin
     id 11 
     name lowerback
     direction -0.000778023 0.997293 -0.0735223   
     length 2.06139   
     axis 0 0 0   XYZ
    dof rx ry rz
    limits (-20.0 45.0)
           (-30.0 30.0)
           (-30.0 30.0)
  end
  begin
     id 12 
     name upperback
     direction 0.0222598 0.999722 -0.0078355   
     length 2.06383   
     axis 0 0 0   XYZ
    dof rx ry rz
    limits (-20.0 45.0)
           (-30.0 30.0)
           (-30.0 30.0)
  end
  begin
     id 13 
     name thorax
     direction 0.0219654 0.999405 0.0265994   
     length 2.07163   
     axis 0 0 0   XYZ
    dof rx ry rz
    limits (-20.0 45.0)
           (-30.0 30.0)
           (-30.0 30.0)
  end
  begin
     id 14 
     name lowerneck
     direction 0.0213282 0.988147 0.15202   
     length 1.75969   
     axis 0 0 0   XYZ
    dof rx ry rz
    limits (-20.0 45.0)
           (-30.0 30.0)
           (-30.0 30.0)
  end
  begin
     id 15 
     name upperneck
     direction -0.0546456 0.982624 -0.177379   
     length 1.79244   
     axis 0 0 0   XYZ
    dof rx ry rz
    limits (-20.0 45.0)
           (-30.0 30.0)
           (-30.0 30.0)
  end
  begin
     id 16
     name head
     direction -0.0199987 0.996855 -0.076686  
     length 1.80555  
     axis 0 0 0   XYZ
    dof rx ry rz
    limits (-20.0 45.0)
           (-30.0 30.0)
           (-30.0 30.0)
  end
  begin
     id 17 
     name lclavicle
     direction 0.929565 0.363219 -0.063096  
     length 3.55722  
     axis 0 0 0   XYZ
    dof ry rz
    limits (-20.0 10.0)
           (0.0 20.0)
  end
  begin
     id 18 
     name lhumerus
     direction 1 -4.48993e-011 -2.36203e-027   
     length 4.92785   
     axis 180 -30 -90   XYZ
    dof rx ry rz
    limits (-60.0 90.0)
           (-90.0 90.0)
           (-90.0 90.0)
  end
  begin
     id 19
     name lradius
     direction 1 -4.48947e-011 2.02997e-027   
     length 3.44052   
     axis 180 -30 -90   XYZ
    dof rx
    limits (-10.0 170.0)
  end
  begin
     id 20
     name lwrist
     direction 1 -4.48962e-011 1.45991e-027   
     length 1.72026   
     axis 1.49639e-024 90 90   XYZ
    dof ry
    limits (-180.0 0.0)
 end
  begin
     id 21 
     name lhand
     direction 1 -4.48984e-011 2.91906e-027   
     length 0.654326   
     axis -1.863e-015 90 90   XYZ
    dof rx rz
    limits (-90.0 90.0)
           (-45.0 45.0)
  end
  begin
     id 22 
     name lfingers
     direction 1 -4.48961e-011 5.83968e-027   
     length 0.527534   
     axis -3.72598e-015 90 90   XYZ
    dof rx
    limits (0.0 90.0)
  end
  begin
     id 23
     name lthumb
     direction 0.707107 -6.34963e-011 0.707107   
     length 0.757437   
     axis -90 45 -6.68868e-015   XYZ
    dof rx rz
    limits (-45.0 45.0)
           (-45.0 45.0)
  end
  begin
     id 24 
     name rclavicle
     direction -0.902944 0.422599 -0.0781198   
     length 3.54432  
     axis 0 0 0   XYZ 
    dof ry rz
    limits (-10.0 20.0)
           (-20.0 0.0)
  end
  begin
     id 25 
     name rhumerus
     direction -1 -4.48953e-011 -4.75835e-028  
     length 5.09181   
     axis 180 30 90   XYZ
    dof rx ry rz
    limits (-90.0 60.0)
           (-90.0 90.0)
           (-90.0 90.0)
  end
  begin
     id 26 
     name rradius
     direction -1 -4.48986e-011 -3.25889e-027   
     length 3.49865   
     axis 180 30 90   XYZ
    dof rx
    limits (-10.0 170.0)
  end
  begin
     id 27 
     name rwrist
     direction -1 -4.48963e-011 1.45989e-027   
     length 1.74933   
     axis 1.49639e-024 -90 -90   XYZ
    dof ry
    limits (-180.0 0.0)
  end
  begin
     id 28
     name rhand
     direction -1 -4.49003e-011 2.91844e-027   
     length 0.66641   
     axis -1.863e-015 -90 -90   XYZ
    dof rx rz
    limits (-90.0 90.0)
           (-45.0 45.0)
  end
  begin
     id 29
     name rfingers
     direction -1 -4.48973e-011 5.83886e-027   
     length 0.537277   
     axis -3.72598e-015 -90 -90   XYZ
    dof rx
    limits (0.0 90.0)
  end
  begin
     id 30
     name rthumb
     direction -0.707107 -6.34976e-011 0.707107   
     length 0.771425   
     axis -90 -45 6.68868e-015   XYZ
    dof rx rz
    limits (-45.0 45.0)
           (-45.0 45.0)
  end
:hierarchy
  begin
    root lhipjoint rhipjoint lowerback
    lhipjoint lfemur
    lfemur ltibia
    ltibia lfoot
    lfoot ltoes
    rhipjoint rfemur
    rfemur rtibia
    rtibia rfoot
    rfoot rtoes
    lowerback upperback
    upperback thorax
    thorax lowerneck lclavicle rclavicle
    lowerneck upperneck
    upperneck head
    lclavicle lhumerus
    lhumerus lradius
    lradius lwrist
    lwrist lhand lthumb
    lhand lfingers
    rclavicle rhumerus
    rhumerus rradius
    rradius rwrist
    rwrist rhand rthumb
    rhand rfingers
  end

#!OML:ASF H:\LiuWeirdWalks\Patient Classification 1\Patient 1\Session 1\male.ASF
:FULLY-SPECIFIED
:DEGREES
153
root 1.33483 17.9308 -30.101 2.52733 1.66279 -3.2951
lowerback 3.13631 1.9896 1.6489
upperback -0.851333 2.74398 0.858967
thorax -2.59631 1.34906 -0.186592
lowerneck -25.0322 -1.60731 4.18045
upperneck 25.4771 -3.50988 -1.48615
head 12.5156 -1.33764 -1.8878
rclavicle 6.86118e-015 1.00386e-014
rhumerus -33.4467 -20.2024 -76.3926
rradius 23.4523
rwrist -0.506745
rhand -17.2803 -3.39448
rfingers 7.12502
rthumb 8.96487 -33.184
lclavicle 6.86118e-015 1.00386e-014
lhumerus -33.7347 -4.13895 83.9904
lradius 28.0639
lwrist 9.88597
lhand -12.1635 1.68513
lfingers 7.12502
lthumb 13.8994 31.2006
rfemur -7.16381 -0.781134 18.9269
rtibia 27.3332
rfoot -11.8233 -22.4455
rtoes -4.27483
lfemur -7.70572 -1.0836 -19.4614
ltibia 26.5335
lfoot -13.5189 14.2498
ltoes -23.2474
154
root 1.35873 17.9262 -30.1006 2.51127 1.68111 -3.23414
lowerback 3.15446 1.98779 1.58081
upperback -0.814813 2.73851 0.859522
thorax -2.57216 1.34774 -0.147674
lowerneck -24.987 -1.61284 4.15074
upperneck 25.3967 -3.50033 -1.49065
head 12.4754 -1.33921 -1.88037
rclavicle -3.05228e-014 -1.15295e-014
rhumerus -33.5065 -20.1814 -76.3276
rradius 23.5435
rwrist -0.614801
rhand -17.2712 -3.39169
rfingers 7.12502
rthumb 8.97367 -33.1808
lclavicle -3.05228e-014 -1.15295e-014
lhumerus -33.7426 -4.11138 83.9981
lradius 28.1129
lwrist 9.93724
lhand -12.1533 1.70973
lfingers 7.12502
lthumb 13.9093 31.2245
rfemur -7.26014 -0.830766 18.7684
rtibia 27.5668
rfoot -11.8711 -22.4292
rtoes -4.36783
lfemur -7.71122 -1.03293 -19.6123
ltibia 26.5787
lfoot -13.5813 14.1828
ltoes -23.3086
155
root 1.38279 17.9213 -30.0995 2.4904 1.69693 -3.16054
lowerback 3.17757 1.98995 1.50329
upperback -0.780063 2.73789 0.852099
thorax -2.55261 1.34884 -0.112152
lowerneck -24.9628 -1.63127 4.11498
upperneck 25.3627 -3.51126 -1.4873
head 12.4574 -1.34807 -1.87389
rclavicle -8.56948e-015 -1.19271e-014
rhumerus -33.5802 -20.1515 -76.2687
rradius 23.6555
rwrist -0.762456
rhand -17.2643 -3.41713
rfingers 7.12502
rthumb 8.98035 -33.206
lclavicle -8.56948e-015 -1.19271e-014
lhumerus -33.7524 -4.10161 84.0074
lradius 28.1563
lwrist 9.99642
lhand -12.1418 1.71733
lfingers 7.12502
lthumb 13.9204 31.2314
rfemur -7.36742 -0.8944 18.5939
rtibia 27.8391
rfoot -11.9283 -22.4017
rtoes -4.48212
lfemur -7.70329 -0.960721 -19.7764
ltibia 26.6156
lfoot -13.6505 14.0989
ltoes -23.3432
156
root 1.40672 17.9163 -30.0992 2.47766 1.72257 -3.0644
lowerback 3.17987 1.98673 1.39888
upperback -0.738236 2.7284 0.843975
thorax -2.51538 1.34604 -0.0609219
lowerneck -24.9338 -1.64298 4.07425
upperneck 25.3163 -3.50965 -1.48558
head 12.4341 -1.35242 -1.86468
rclavicle 6.15891e-014 -4.37326e-015
rhumerus -33.6351 -20.1238 -76.2036
rradius 23.7634
rwrist -0.903631
rhand -17.2502 -3.42683
rfingers 7.12502
rthumb 8.99387 -33.2151
lclavicle 6.15891e-014 -4.37326e-015
lhumerus -33.7445 -4.07346 84.0181
lradius 28.1825
lwrist 10.0429
lhand -12.1576 1.65843
lfingers 7.12502
lthumb 13.9051 31.1735
rfemur -7.50386 -0.973234 18.3947
rtibia 28.149
rfoot -11.9936 -22.3717
rtoes -4.5928
lfemur -7.70552 -0.880102 -19.963
ltibia 26.6462
lfoot -13.7207 13.9959
ltoes -23.3434
157
root 1.43054 17.9112 -30.099 2.47545 1.72771 -2.95419
lowerback 3.19871 1.99671 1.28422
upperback -0.716564 2.73642 0.820508
thorax -2.50774 1.3517 -0.0216982
lowerneck -24.8999 -1.67577 4.02073
upperneck 25.3117 -3.54036 -1.46195
head 12.4261 -1.36823 -1.85142
rclavicle -9.99825e-015 8.54774e-015
rhumerus -33.7285 -20.1285 -76.1264
rradius 23.8774
rwrist -1.03425
rhand -17.2388 -3.42682
rfingers 7.12502
rthumb 9.00489 -33.2146
lclavicle -9.99825e-015 8.54774e-015
lhumerus -33.7568 -4.08671 84.0243
lradius 28.2087
lwrist 10.1093
lhand -12.1845 1.61183
lfingers 7.12502
lthumb 13.8792 31.1287
rfemur -7.6762 -1.03905 18.1797
rtibia 28.4999
rfoot -12.0767 -22.3383
rtoes -4.68476
lfemur -7.71435 -0.793405 -20.1654
ltibia 26.6678
lfoot -13.7851 13.9028
ltoes -23.3018
158
root 1.45329 17.9061 -30.0994 2.47512 1.75343 -2.84215
lowerback 3.21523 1.99409 1.15235
upperback -0.687538 2.72697 0.805502
thorax -2.4926 1.349 0.0369601
lowerneck -24.8796 -1.69463 3.96527
upperneck 25.2997 -3.54955 -1.44313
head 12.4186 -1.3755 -1.83604
rclavicle 4.8578e-015 -5.86415e-015
rhumerus -33.7869 -20.1463 -76.0428
rradius 23.9685
rwrist -1.1359
rhand -17.2404 -3.42669
rfingers 7.12502
rthumb 9.00338 -33.2146
lclavicle 4.8578e-015 -5.86415e-015
lhumerus -33.7605 -4.07847 84.0302
lradius 28.2388
lwrist 10.1515
lhand -12.2211 1.57593
lfingers 7.12502
lthumb 13.8439 31.0952
rfemur -7.87133 -1.0958 17.9735
rtibia 28.8903
rfoot -12.1825 -22.3421
rtoes -4.74545
lfemur -7.72673 -0.732666 -20.3631
ltibia 26.6816
lfoot -13.8345 13.8076
ltoes -23.1988
159
root 1.4758 17.9007 -30.1004 2.48001 1.76969 -2.70868
lowerback 3.24863 1.99737 0.99855
upperback -0.672958 2.72468 0.779541
thorax -2.50221 1.34991 0.0952742
lowerneck -24.8449 -1.70095 3.93133
upperneck 25.267 -3.54628 -1.43101
head 12.3998 -1.37661 -1.82392
rclavicle 1.16755e-014 1.3418e-015
rhumerus -33.8657 -20.1823 -75.9507
rradius 24.0584
rwrist -1.22259
rhand -17.2536 -3.42589
rfingers 7.12502
rthumb 8.99061 -33.2143
lclavicle 1.16755e-014 1.3418e-015
lhumerus -33.7795 -4.08994 84.0327
lradius 28.2751
lwrist 10.1949
lhand -12.2785 1.5928
lfingers 7.12502
lthumb 13.7886 31.1158
rfemur -8.0957 -1.15694 17.7432
rtibia 29.3161
rfoot -12.2967 -22.3413
rtoes -4.78384
lfemur -7.74237 -0.673514 -20.5842
ltibia 26.6884
lfoot -13.8731 13.7177
ltoes -23.072
160
root 1.49786 17.8949 -30.1015 2.47694 1.76586 -2.57325
lowerback 3.27336 2.00266 0.833276
upperback -0.643416 2.72437 0.761382
thorax -2.49249 1.35213 0.168565
lowerneck -24.84 -1.70139 3.89151
upperneck 25.2557 -3.53223 -1.42538
head 12.3957 -1.3738 -1.81244
rclavicle 2.58047e-014 1.75427e-014
rhumerus -33.9156 -20.2072 -75.8603
rradius 24.1452
rwrist -1.30924
rhand -17.265 -3.41503
rfingers 7.12502
rthumb 8.97963 -33.2039
lclavicle 2.58047e-014 1.75427e-014
lhumerus -33.7819 -4.06967 84.0329
lradius 28.3175
lwrist 10.2332
lhand -12.3213 1.65029
lfingers 7.12502
lthumb 13.7474 31.1761
rfemur -8.33173 -1.20497 17.513
rtibia 29.7692
rfoot -12.4026 -22.3403
rtoes -4.82402
lfemur -7.74663 -0.596453 -20.8049
ltibia 26.6933
lfoot -13.9026 13.6267
ltoes -22.9897
161
root 1.51982 17.8888 -30.1018 2.45896 1.74914 -2.43952
lowerback 3.29751 2.00796 0.661293
upperback -0.597377 2.72375 0.751665
thorax -2.46621 1.35439 0.254671
lowerneck -24.8809 -1.69168 3.84679
upperneck 25.2734 -3.50393 -1.42172
head 12.4126 -1.36455 -1.79988
rclavicle -1.80428e-014 -2.98177e-016
rhumerus -33.9419 -20.194 -75.7836
rradius 24.2457
rwrist -1.425
rhand -17.2704 -3.4031
rfingers 7.12502
rthumb 8.9744 -33.1922
lclavicle -1.80428e-014 -2.98177e-016
lhumerus -33.7737 -4.0228 84.033
lradius 28.363
lwrist 10.2365
lhand -12.3412 1.66918
lfingers 7.12502
lthumb 13.7282 31.1963
rfemur -8.5664 -1.25431 17.2821
rtibia 30.2478
rfoot -12.5113 -22.3197
rtoes -4.84674
lfemur -7.72872 -0.475539 -21.0205
ltibia 26.6929
lfoot -13.9339 13.5089
ltoes -23.0064
162
root 1.54181 17.8827 -30.1017 2.42506 1.7179 -2.32478
lowerback 3.3363 2.01714 0.512976
upperback -0.553295 2.7296 0.747642
thorax -2.44938 1.35944 0.33246
lowerneck -24.9213 -1.68071 3.78991
upperneck 25.3201 -3.47271 -1.40758
head 12.4415 -1.35306 -1.7814
rclavicle 1.25529e-014 -4.47266e-015
rhumerus -33.9855 -20.1482 -75.712
rradius 24.3629
rwrist -1.57452
rhand -17.2773 -3.40638
rfingers 7.12502
rthumb 8.96776 -33.1958
lclavicle 1.25529e-014 -4.47266e-015
lhumerus -33.7856 -3.97066 84.0325
lradius 28.4201
lwrist 10.2524
lhand -12.334 1.67143
lfingers 7.12502
lthumb 13.7351 31.1981
rfemur -8.80091 -1.29718 17.0694
rtibia 30.752
rfoot -12.6007 -22.2773
rtoes -4.87818
lfemur -7.68829 -0.340287 -21.2158
ltibia 26.6878
lfoot -13.9604 13.3968
ltoes -23.0311
163
root 1.56375 17.8768 -30.1001 2.36598 1.69891 -2.20291
lowerback 3.37919 2.02857 0.363308
upperback -0.500058 2.73806 0.735213
thorax -2.42515 1.36568 0.402307
lowerneck -24.9764 -1.67841 3.73863
upperneck 25.4098 -3.45962 -1.3867
head 12.4899 -1.34703 -1.76555
rclavicle -1.56621e-014 1.55301e-014
rhumerus -34.0388 -20.1358 -75.6344
rradius 24.4769
rwrist -1.70599
rhand -17.2714 -3.39238
rfingers 7.12502
rthumb 8.97343 -33.1815
lclavicle -1.56621e-014 1.55301e-014
lhumerus -33.8095 -3.93538 84.0262
lradius 28.4867
lwrist 10.2786
lhand -12.2904 1.60225
lfingers 7.12502
lthumb 13.7771 31.1261
rfemur -9.016 -1.3547 16.8445
rtibia 31.2883
rfoot -12.6816 -22.2091
rtoes -4.93501
lfemur -7.60977 -0.185276 -21.4162
ltibia 26.6746
lfoot -13.9964 13.2623
ltoes -23.0817
164
root 1.58543 17.8714 -30.0989 2.30693 1.70525 -2.0726
lowerback 3.42102 2.03457 0.212482
upperback -0.442243 2.73892 0.713902
thorax -2.39521 1.368 0.464269
lowerneck -25.026 -1.68049 3.68349
upperneck 25.4883 -3.45624 -1.34779
head 12.5331 -1.34341 -1.74348
rclavicle -1.56124e-014 -6.26172e-015
rhumerus -34.0842 -20.1535 -75.5565
rradius 24.5796
rwrist -1.80922
rhand -17.2521 -3.3567
rfingers 7.12502
rthumb 8.99209 -33.1451
lclavicle -1.56124e-014 -6.26172e-015
lhumerus -33.8329 -3.91094 84.0127
lradius 28.5632
lwrist 10.3084
lhand -12.2396 1.51174
lfingers 7.12502
lthumb 13.8261 31.0322
rfemur -9.24785 -1.42877 16.607
rtibia 31.863
rfoot -12.7441 -22.1157
rtoes -4.9987
lfemur -7.53127 -0.036846 -21.6238
ltibia 26.6563
lfoot -14.0318 13.1132
ltoes -23.0739
165
root 1.60717 17.8664 -30.0976 2.24654 1.71351 -1.94176
lowerback 3.47482 2.04871 0.0827984
upperback -0.398813 2.75115 0.672073
thorax -2.3849 1.37547 0.491997
lowerneck -25.0457 -1.70495 3.62952
upperneck 25.5849 -3.48959 -1.29167
head 12.577 -1.35315 -1.72124
rclavicle 2.95972e-014 -7.57867e-015
rhumerus -34.1704 -20.2243 -75.4705
rradius 24.6741
rwrist -1.87116
rhand -17.2313 -3.30783
rfingers 7.12502
rthumb 9.01214 -33.0953
lclavicle 2.95972e-014 -7.57867e-015
lhumerus -33.8775 -3.94899 83.9911
lradius 28.6448
lwrist 10.3894
lhand -12.2169 1.44386
lfingers 7.12502
lthumb 13.848 30.9629
rfemur -9.50169 -1.50096 16.3631
rtibia 32.4845
rfoot -12.7874 -21.9845
rtoes -5.08163
lfemur -7.44733 0.103667 -21.8333
ltibia 26.6292
lfoot -14.0632 12.974
ltoes -23.0219
166
root 1.62808 17.8621 -30.0977 2.19879 1.74818 -1.83202
lowerback 3.52505 2.04933 -0.0321311
upperback -0.348251 2.7461 0.640516
thorax -2.36491 1.37415 0.523281
lowerneck -25.0842 -1.73205 3.56304
upperneck 25.6827 -3.52341 -1.23294
head 12.6256 -1.36387 -1.69634
rclavicle -1.50191e-014 1.16786e-015
rhumerus -34.2155 -20.3062 -75.3879
rradius 24.7447
rwrist -1.89968
rhand -17.2196 -3.25433
rfingers 7.12502
rthumb 9.02344 -33.0413
lclavicle -1.50191e-014 1.16786e-015
lhumerus -33.8954 -3.9668 83.9655
lradius 28.7142
lwrist 10.4586
lhand -12.2187 1.35577
lfingers 7.12502
lthumb 13.8462 30.8749
rfemur -9.79923 -1.57671 16.1456
rtibia 33.1572
rfoot -12.7888 -21.8418
rtoes -5.19656
lfemur -7.38353 0.208768 -22.0164
ltibia 26.5964
lfoot -14.0787 12.8407
ltoes -22.9289
167
root 1.64938 17.858 -30.0977 2.15539 1.77051 -1.72317
lowerback 3.57111 2.05202 -0.141107
upperback -0.305726 2.74405 0.609675
thorax -2.35063 1.37421 0.551793
lowerneck -25.1078 -1.74738 3.51767
upperneck 25.7673 -3.5391 -1.20289
head 12.6654 -1.36894 -1.68221
rclavicle -5.36563e-014 -1.20016e-014
rhumerus -34.2671 -20.3888 -75.2971
rradius 24.8019
rwrist -1.90639
rhand -17.2081 -3.20593
rfingers 7.12502
rthumb 9.03455 -32.9925
lclavicle -5.36563e-014 -1.20016e-014
lhumerus -33.9075 -3.96552 83.9306
lradius 28.7448
lwrist 10.4736
lhand -12.2272 1.24754
lfingers 7.12502
lthumb 13.838 30.7672
rfemur -10.1334 -1.6563 15.9196
rtibia 33.8821
rfoot -12.7496 -21.6555
rtoes -5.33482
lfemur -7.31959 0.299903 -22.2039
ltibia 26.5586
lfoot -14.0889 12.7372
ltoes -22.8334
